<svg xmlns="http://www.w3.org/2000/svg" xmlns:xlink="http://www.w3.org/1999/xlink" viewBox="0 0 728.21 73.65"><defs><style>.cls-1{fill:none;}.cls-2{clip-path:url(#clip-path);}.cls-3{fill:#00bed6;}</style><clipPath id="clip-path"><rect class="cls-1" width="728.16" height="73.65"/></clipPath></defs><title>Asset 2</title><g id="Layer_2" data-name="Layer 2"><g id="Layer_1-2" data-name="Layer 1"><g class="cls-2"><path class="cls-3" d="M100.29,13.2V.05H18.82C6.31.05,0,6.47,0,16.88V56.82C0,67.23,6.31,73.65,18.82,73.65h81.47V60.5H14.19V13.2Zm54.36,16.92V.05H140.77v73.6h13.88V43.05h74.11v30.6h13.88V.05H228.76V30.12ZM377.42.05V60.5H304.35V.05H290.48V56.82c0,10.41,6.3,16.83,18.81,16.83h63.19c12.51,0,18.81-6.42,18.81-16.83V.05Zm147.07,73.6c13.67,0,20-5.68,20-15.46V49.57c0-2.73-.94-4-2.94-5.68l-8.83-7.57,8.83-7.56c2-1.69,2.94-3,2.94-5.68V15.51c0-9.78-6.3-15.46-20-15.46H439.12v73.6ZM453,12.57h77.27V30.44H453V12.57Zm77.27,48.57H453V42.74h77.27v18.4Zm143.5,12.51c13.67,0,20-5.68,20-15.46V49.57c0-2.73-1-4-3-5.68L682,36.32l8.83-7.56c2-1.69,3-3,3-5.68V15.51c0-9.78-6.31-15.46-20-15.46H588.41v73.6ZM602.29,12.57h77.27V30.44H602.29V12.57Zm77.27,48.57H602.29V42.74h77.27v18.4Z"/><path class="cls-3" d="M719.13,9.42a3.71,3.71,0,0,0,1.12-.22,1.74,1.74,0,0,0,.78-.61,1.94,1.94,0,0,0,.3-1.15,2,2,0,0,0-.23-1,1.7,1.7,0,0,0-.62-.6,2.49,2.49,0,0,0-.88-.31,5.55,5.55,0,0,0-1-.08H716v4h1.89c.43,0,.86,0,1.28-.05Zm-4.6,6.41V4.23H719a4.17,4.17,0,0,1,2.87.83,3,3,0,0,1,.91,2.38,3.5,3.5,0,0,1-.23,1.32,2.81,2.81,0,0,1-.63,1,3.09,3.09,0,0,1-.93.62,5.28,5.28,0,0,1-1.13.34l3.46,5.15h-1.67l-3.27-5.15H716v5.15Zm.26-13.73a8.33,8.33,0,0,0-4.45,4.56,8.94,8.94,0,0,0-.63,3.37,8.9,8.9,0,0,0,.63,3.37,8.25,8.25,0,0,0,1.77,2.73,8.35,8.35,0,0,0,6.06,2.5,8.35,8.35,0,0,0,6-2.5A8.43,8.43,0,0,0,726,13.4a8.54,8.54,0,0,0,.65-3.37A8.58,8.58,0,0,0,726,6.66a8.39,8.39,0,0,0-1.78-2.72,8.16,8.16,0,0,0-2.68-1.84,8.81,8.81,0,0,0-6.74,0ZM722.14.77a9.66,9.66,0,0,1,3.18,2.13A10,10,0,0,1,728.21,10a10.08,10.08,0,0,1-.77,4,9.77,9.77,0,0,1-5.3,5.29,10.59,10.59,0,0,1-7.93,0A10,10,0,0,1,711,17.15,9.75,9.75,0,0,1,708.91,14a10.08,10.08,0,0,1-.77-4,10.17,10.17,0,0,1,.77-3.94A9.94,9.94,0,0,1,711,2.9,9.66,9.66,0,0,1,714.21.77a10.59,10.59,0,0,1,7.93,0Z"/></g></g></g></svg>